Coordinates
version=1
nRows=18
nColumns=38
inDegrees=no

Units are S.I. units (second, meters, Newtons, ...)
If the header above contains a line with 'inDegrees', this indicates whether rotational values are in degrees (yes) or radians (no).

endheader
time	pelvis_tilt	pelvis_list	pelvis_rotation	pelvis_tx	pelvis_ty	pelvis_tz	hip_flexion_r	hip_adduction_r	hip_rotation_r	knee_angle_r	ankle_angle_r	subtalar_angle_r	mtp_angle_r	hip_flexion_l	hip_adduction_l	hip_rotation_l	knee_angle_l	ankle_angle_l	subtalar_angle_l	mtp_angle_l	lumbar_extension	lumbar_bending	lumbar_rotation	arm_flex_r	arm_add_r	arm_rot_r	elbow_flex_r	pro_sup_r	wrist_flex_r	wrist_dev_r	arm_flex_l	arm_add_l	arm_rot_l	elbow_flex_l	pro_sup_l	wrist_flex_l	wrist_dev_l
1.15833	-0.0869235	0.0840488	-0.0501715	1.14505	1.02631	-0.312083	-0.118919	-0.0832202	-0.0636484	-1.46718	-0.239899	0.0343465	0.000259486	0.654757	0.0776306	-0.134334	-0.228797	-0.338047	0.0592267	0.000553047	-0.155029	-0.142408	0.237172	-0.442537	-0.177923	-0.154452	1.83229	1.48789	0.0229923	-0.00384382	-1.0789	-0.18026	-0.349736	2.03005	1.60278	0.0442164	-0.00503466
1.16667	-0.0786632	0.0862224	-0.0412681	1.14467	1.02365	-0.312309	-0.0927318	-0.0977273	-0.0931821	-1.56879	-0.230747	0.0343465	0.000259486	0.621752	0.0878442	-0.134321	-0.216636	-0.345538	0.0592267	0.000553047	-0.168402	-0.147331	0.215801	-0.455284	-0.172138	-0.15254	1.78215	1.46091	0.0229923	-0.00384382	-1.05304	-0.190951	-0.342852	2.03156	1.59768	0.0442164	-0.00503466
1.175	-0.0718973	0.0899213	-0.0328243	1.14408	1.02022	-0.312598	-0.0623191	-0.112368	-0.117067	-1.66848	-0.219097	0.0343465	0.000259486	0.59577	0.0996716	-0.129165	-0.225762	-0.343176	0.0592267	0.000553047	-0.180355	-0.153389	0.193727	-0.468199	-0.167057	-0.149628	1.72953	1.43316	0.0229923	-0.00384382	-1.02339	-0.203462	-0.334276	2.03027	1.59248	0.0442164	-0.00503466
1.18333	-0.0661811	0.0945648	-0.0254845	1.14329	1.01603	-0.312899	-0.0276684	-0.125641	-0.133928	-1.76577	-0.205193	0.0343465	0.000259486	0.57563	0.112812	-0.117811	-0.254254	-0.328465	0.0592267	0.000553047	-0.191369	-0.160083	0.171435	-0.48082	-0.163114	-0.145591	1.67469	1.40618	0.0229923	-0.00384382	-0.990079	-0.217329	-0.324	2.02653	1.58788	0.0442164	-0.00503466
1.19167	-0.0611676	0.0996779	-0.019701	1.14231	1.01113	-0.313169	0.011443	-0.136498	-0.143253	-1.8601	-0.189629	0.0343465	0.000259486	0.55975	0.127144	-0.10032	-0.298969	-0.299059	0.0592267	0.000553047	-0.201846	-0.167027	0.149209	-0.492718	-0.160598	-0.140403	1.61795	1.38105	0.0229923	-0.00384382	-0.953306	-0.232147	-0.312058	2.02097	1.58449	0.0442164	-0.00503466
1.2	-0.0566785	0.104867	-0.0157354	1.14113	1.00556	-0.313369	0.0554327	-0.144361	-0.145304	-1.95077	-0.173113	0.0343465	0.000259486	0.546571	0.142571	-0.0779307	-0.356179	-0.253306	0.0592267	0.000553047	-0.212014	-0.173905	0.127185	-0.503551	-0.159622	-0.134216	1.55983	1.35821	0.0229923	-0.00384382	-0.913273	-0.24759	-0.298549	2.01453	1.5827	0.0442164	-0.00503466
1.20833	-0.0527346	0.109767	-0.013677	1.13973	0.999389	-0.31347	0.104816	-0.14903	-0.140927	-2.03684	-0.156279	0.0343465	0.000259486	0.534797	0.158862	-0.0527915	-0.421993	-0.190962	0.0592267	0.000553047	-0.221892	-0.180415	0.105408	-0.513121	-0.160107	-0.127457	1.50103	1.33771	0.0229923	-0.00384382	-0.870198	-0.263421	-0.283644	2.0084	1.58259	0.0442164	-0.00503466
1.21667	-0.0495034	0.114034	-0.0134527	1.13805	0.992774	-0.313451	0.160069	-0.15056	-0.13135	-2.11712	-0.139562	0.0343465	0.000259486	0.523385	0.175571	-0.0274118	-0.492427	-0.113795	0.0592267	0.000553047	-0.231291	-0.186226	0.0838758	-0.521425	-0.161785	-0.120881	1.4425	1.31934	0.0229923	-0.00384382	-0.824292	-0.279486	-0.267574	2.00396	1.584	0.0442164	-0.00503466
1.225	-0.0472243	0.117374	-0.0148197	1.13605	0.985914	-0.31331	0.221437	-0.149234	-0.118042	-2.19015	-0.123132	0.0343465	0.000259486	0.511397	0.192044	-0.00405482	-0.563406	-0.0256303	0.0592267	0.000553047	-0.239874	-0.19098	0.0625508	-0.528666	-0.164221	-0.115552	1.38538	1.30294	0.0229923	-0.00384382	-0.775762	-0.295679	-0.250618	2.00261	1.58657	0.0442164	-0.00503466
1.23333	-0.0461371	0.119551	-0.0173835	1.13375	0.979033	-0.313077	0.288772	-0.145519	-0.102599	-2.25425	-0.106919	0.0343465	0.000259486	0.497847	0.20751	0.0157959	-0.630842	0.0681871	0.0592267	0.000553047	-0.247229	-0.194319	0.0413696	-0.535238	-0.166861	-0.112759	1.33095	1.28851	0.0229923	-0.00384382	-0.724832	-0.311904	-0.233086	2.00565	1.58996	0.0442164	-0.00503466
1.24167	-0.0464141	0.12039	-0.020632	1.13127	0.972384	-0.312817	0.36141	-0.13998	-0.0866312	-2.30765	-0.0907175	0.0343465	0.000259486	0.481643	0.221158	0.0317013	-0.690874	0.161703	0.0592267	0.000553047	-0.252941	-0.195875	0.020265	-0.541686	-0.169098	-0.113847	1.28047	1.27637	0.0229923	-0.00384382	-0.671775	-0.328017	-0.215308	2.01413	1.5939	0.0442164	-0.00503466
1.25	-0.0481195	0.11972	-0.0239933	1.12874	0.966249	-0.312608	0.438114	-0.133168	-0.0716855	-2.34862	-0.0743257	0.0343465	0.000259486	0.461617	0.232178	0.044182	-0.740196	0.249267	0.0592267	0.000553047	-0.256663	-0.195237	-0.00079974	-0.548626	-0.170371	-0.120014	1.23512	1.26698	0.0229923	-0.00384382	-0.616969	-0.343766	-0.197615	2.02876	1.59836	0.0442164	-0.00503466
1.25833	-0.0511904	0.117322	-0.0269089	1.12632	0.960906	-0.312517	0.517116	-0.125505	-0.0591789	-2.37565	-0.0576586	0.0343465	0.000259486	0.436665	0.23978	0.0543567	-0.776387	0.326129	0.0592267	0.000553047	-0.258152	-0.191922	-0.0218003	-0.556664	-0.170252	-0.132116	1.19584	1.26075	0.0229923	-0.00384382	-0.560957	-0.358752	-0.180325	2.04988	1.60346	0.0442164	-0.00503466
1.26667	-0.0554678	0.112893	-0.0289174	1.1242	0.956605	-0.312588	0.596284	-0.117244	-0.0503274	-2.38759	-0.0408	0.0343465	0.000259486	0.405945	0.243218	0.0634615	-0.798111	0.388628	0.0592267	0.000553047	-0.257248	-0.185392	-0.0426394	-0.566309	-0.168509	-0.150527	1.1633	1.25779	0.0229923	-0.00384382	-0.504495	-0.372429	-0.163721	2.07745	1.60932	0.0442164	-0.00503466
1.275	-0.0607344	0.106101	-0.0297306	1.12257	0.953541	-0.312849	0.673344	-0.108483	-0.0460582	-2.3838	-0.0239936	0.0343465	0.000259486	0.369025	0.241872	0.0724235	-0.805112	0.434045	0.0592267	0.000553047	-0.253867	-0.175128	-0.063163	-0.577905	-0.165134	-0.175109	1.13786	1.25779	0.0229923	-0.00384382	-0.448566	-0.384148	-0.14803	2.11114	1.61595	0.0442164	-0.00503466
1.28333	-0.0668089	0.0966552	-0.0293227	1.12159	0.951835	-0.313308	0.746182	-0.0991805	-0.0468975	-2.36419	-0.00759324	0.0343465	0.000259486	0.325999	0.235316	0.0815329	-0.798058	0.460376	0.0592267	0.000553047	-0.247949	-0.160726	-0.0831503	-0.591593	-0.160324	-0.205246	1.11961	1.26006	0.0229923	-0.00384382	-0.394354	-0.393256	-0.133395	2.15037	1.62311	0.0442164	-0.00503466
1.29167	-0.0736093	0.0843968	-0.027997	1.12137	0.951518	-0.313952	0.81309	-0.0891425	-0.0528662	-2.32923	0.00799641	0.0343465	0.000259486	0.277495	0.22339	0.0903129	-0.778281	0.466161	0.0592267	0.000553047	-0.239445	-0.142015	-0.102298	-0.607306	-0.154455	-0.239926	1.10832	1.26357	0.0229923	-0.00384382	-0.34315	-0.399215	-0.119845	2.19443	1.63027	0.0442164	-0.00503466
1.3	-0.0811677	0.0693531	-0.0264069	1.12192	0.952538	-0.314741	0.87291	-0.0779959	-0.0634199	-2.27981	0.022362	0.0343465	0.000259486	0.224602	0.206253	0.0975969	-0.747505	0.450483	0.0592267	0.000553047	-0.228326	-0.119125	-0.120196	-0.624808	-0.148037	-0.277825	1.10357	1.26704	0.0229923	-0.00384382	-0.296222	-0.401718	-0.107269	2.24242	1.63671	0.0442164	-0.00503466
